<?xml version="1.0" encoding="iso-8859-1"?>
<!-- Generator: Adobe Illustrator 19.0.0, SVG Export Plug-In . SVG Version: 6.00 Build 0)  -->
<svg version="1.1" id="Capa_1" xmlns="http://www.w3.org/2000/svg" xmlns:xlink="http://www.w3.org/1999/xlink" x="0px" y="0px"
	 viewBox="0 0 480 480" style="enable-background:new 0 0 480 480;" xml:space="preserve">
<path style="fill:#FFE9CC;" d="M72.004,472h336c8.837,0,16-7.163,16-16V24c0-8.837-7.163-16-16-16h-248v80c0,8.837-7.163,16-16,16
	h-88v352C56.004,464.837,63.167,472,72.004,472z M314.892,179.776L377.116,242l-62.224,62.224L377.116,242L314.892,179.776z
	 M288.004,156.864l-96,166.272L288.004,156.864z M165.116,179.776L102.892,242l62.224,62.224L102.892,242L165.116,179.776z"/>
<path style="fill:#FFA993;" d="M160.004,88V8l-104,96h88C152.841,104,160.004,96.837,160.004,88z"/>
<g>
	<path style="fill:#231F20;" d="M408.004,0h-248c-0.176,0-0.328,0.08-0.504,0.096c-0.628,0.041-1.249,0.16-1.848,0.352
		c-0.272,0.065-0.539,0.148-0.8,0.248c-0.838,0.341-1.612,0.822-2.288,1.424l-104,96c-0.71,0.687-1.286,1.501-1.696,2.4
		c-0.119,0.26-0.221,0.527-0.304,0.8c-0.262,0.718-0.418,1.469-0.464,2.232c0,0.168-0.104,0.32-0.104,0.488V456
		c0,13.255,10.745,24,24,24l0,0h336.008c13.255,0,24-10.745,24-24V24C432.004,10.745,421.259,0,408.004,0z M152.004,26.272V88
		c0,4.418-3.582,8-8,8H76.468L152.004,26.272z M416.004,456c0,4.418-3.582,8-8,8h-336c-4.418,0-8-3.582-8-8V112h80
		c13.255,0,24-10.745,24-24V16h240c4.418,0,8,3.582,8,8V456z"/>
	<path style="fill:#231F20;" d="M192.004,331.136c-4.418-0.005-7.996-3.59-7.992-8.008c0.001-1.401,0.371-2.778,1.072-3.992
		l96-166.272c2.183-3.841,7.067-5.185,10.908-3.002c3.841,2.183,5.185,7.067,3.002,10.908c-0.018,0.031-0.036,0.062-0.054,0.093
		l-96,166.272C197.51,329.614,194.865,331.139,192.004,331.136z"/>
	<path style="fill:#231F20;" d="M165.116,312.224c-2.123,0.006-4.16-0.838-5.656-2.344l-62.224-62.224
		c-3.123-3.124-3.123-8.188,0-11.312l62.224-62.224c3.178-3.069,8.243-2.981,11.312,0.197c2.994,3.1,2.994,8.015,0,11.115
		L114.204,242l56.568,56.568c3.124,3.125,3.123,8.19-0.002,11.314C169.27,311.381,167.237,312.224,165.116,312.224L165.116,312.224z
		"/>
	<path style="fill:#231F20;" d="M314.892,312.224c-4.418-0.001-7.999-3.583-7.998-8.002c0-2.121,0.843-4.154,2.342-5.654
		L365.804,242l-56.568-56.568c-3.069-3.178-2.982-8.243,0.196-11.312c3.1-2.994,8.015-2.994,11.116,0l62.224,62.224
		c3.123,3.124,3.123,8.188,0,11.312l-62.224,62.224C319.052,311.386,317.015,312.23,314.892,312.224z"/>
</g>
<g>
</g>
<g>
</g>
<g>
</g>
<g>
</g>
<g>
</g>
<g>
</g>
<g>
</g>
<g>
</g>
<g>
</g>
<g>
</g>
<g>
</g>
<g>
</g>
<g>
</g>
<g>
</g>
<g>
</g>
</svg>
